<svg width="22" height="22" viewBox="0 0 22 22" fill="none" xmlns="http://www.w3.org/2000/svg">
<g clip-path="url(#clip0_339_620)">
<path d="M8.25001 17.4166C3.66668 18.7916 3.66668 15.125 1.83334 14.6666M14.6667 20.1666V16.6191C14.7011 16.182 14.642 15.7426 14.4934 15.3301C14.3449 14.9176 14.1102 14.5415 13.805 14.2267C16.6833 13.9058 19.7083 12.815 19.7083 7.80998C19.7081 6.53016 19.2158 5.29942 18.3333 4.37248C18.7512 3.25278 18.7217 2.01514 18.2508 0.91665C18.2508 0.91665 17.1692 0.595817 14.6667 2.27332C12.5657 1.7039 10.351 1.7039 8.25001 2.27332C5.74751 0.595817 4.66584 0.91665 4.66584 0.91665C4.19502 2.01514 4.16548 3.25278 4.58334 4.37248C3.69429 5.30629 3.20149 6.54816 3.20834 7.83748C3.20834 12.8058 6.23334 13.8967 9.11168 14.2542C8.81009 14.5658 8.5775 14.9374 8.42904 15.3449C8.28058 15.7524 8.21958 16.1865 8.25001 16.6191V20.1666" stroke="#9BB1FF" stroke-width="2" stroke-linecap="round" stroke-linejoin="round"/>
</g>
<defs>
<clipPath id="clip0_339_620">
<rect width="22" height="22" fill="white"/>
</clipPath>
</defs>
</svg>
